<svg width="22" height="23" viewBox="0 0 22 23" fill="none" xmlns="http://www.w3.org/2000/svg">
<path d="M22 11C22 17.0751 17.0751 22 11 22C4.92487 22 0 17.0751 0 11C0 4.92487 4.92487 0 11 0C17.0751 0 22 4.92487 22 11Z" fill="black"/>
<path d="M15 10C15.5523 10 16 10.4477 16 11V11.914C16 12.4663 15.5523 12.914 15 12.914H13.3672C12.8149 12.914 12.3672 13.3618 12.3672 13.914V21C12.3672 21.5523 12.8078 21.8841 13 21.8186L11 22.5L8.97148 21.8133C9.08971 21.8547 9.63281 21.5523 9.63281 21V20.457V13.914C9.63281 13.3618 9.1851 12.914 8.63281 12.914H7C6.44772 12.914 6 12.4663 6 11.914V11C6 10.4477 6.44772 10 7 10H15Z" fill="white"/>
</svg>
